<svg id="Capa_1" enable-background="new 0 0 512 512" height="512" viewBox="0 0 512 512" width="512" xmlns="http://www.w3.org/2000/svg" xmlns:xlink="http://www.w3.org/1999/xlink"><linearGradient id="SVGID_1_" gradientUnits="userSpaceOnUse" x1="317" x2="317" y1="466" y2="46"><stop offset="0" stop-color="#a93aff"/><stop offset="1" stop-color="#ff81ff"/></linearGradient><linearGradient id="SVGID_00000046317323952011609420000017770761121216361637_" gradientUnits="userSpaceOnUse" x1="166" x2="166" y1="421" y2="46"><stop offset="0" stop-color="#ffbef9"/><stop offset="1" stop-color="#fff1ff"/></linearGradient><g id="Backup_6_"><g><g><path d="m497 46h-165l-15 30-15-30h-30l-15 30-15-30h-30l-15 30-15-30h-45c-8.401 0-15 6.599-15 15v90c0 8.399 6.599 15 15 15h360c8.401 0 15-6.601 15-15v-90c0-8.401-6.599-15-15-15zm0 150h-165v45c0 8.399-6.599 15-15 15s-15-6.601-15-15v-45h-30v45c0 8.399-6.599 15-15 15s-15-6.601-15-15v-45h-30v45c0 8.399-6.599 15-15 15s-15-6.601-15-15v-45h-45c-8.401 0-15 6.599-15 15v90c0 8.399 6.599 15 15 15h360c8.401 0 15-6.601 15-15v-90c0-8.401-6.599-15-15-15zm0 150h-165v45c0 8.399-6.599 15-15 15s-15-6.601-15-15v-45h-30v45c0 8.399-6.599 15-15 15s-15-6.601-15-15v-45h-30v45c0 8.399-6.599 15-15 15s-15-6.601-15-15v-45h-45c-8.401 0-15 6.599-15 15v90c0 8.399 6.599 15 15 15h360c8.401 0 15-6.601 15-15v-90c0-8.401-6.599-15-15-15z" fill="url(#SVGID_1_)"/></g></g><g><g><path d="m75 121c8.291 0 15-6.709 15-15s-6.709-15-15-15h-60c-8.291 0-15 6.709-15 15v300c0 8.291 6.709 15 15 15h60c8.291 0 15-6.709 15-15s-6.709-15-15-15h-45v-120h45c8.291 0 15-6.709 15-15s-6.709-15-15-15h-45v-120zm107-30c0 8.401 6.599 15 15 15s15-6.599 15-15v-45h-30zm60 0c0 8.401 6.599 15 15 15s15-6.599 15-15v-45h-30zm60-45v45c0 8.401 6.599 15 15 15s15-6.599 15-15v-45zm-120 195c0 8.399 6.599 15 15 15s15-6.601 15-15v-45h-30zm60 0c0 8.399 6.599 15 15 15s15-6.601 15-15v-45h-30zm60 0c0 8.399 6.599 15 15 15s15-6.601 15-15v-45h-30zm-120 150c0 8.399 6.599 15 15 15s15-6.601 15-15v-45h-30zm60 0c0 8.399 6.599 15 15 15s15-6.601 15-15v-45h-30zm60 0c0 8.399 6.599 15 15 15s15-6.601 15-15v-45h-30z" fill="url(#SVGID_00000046317323952011609420000017770761121216361637_)"/></g></g></g></svg>