<svg id="Capa_1" enable-background="new 0 0 512 512" height="512" viewBox="0 0 512 512" width="512" xmlns="http://www.w3.org/2000/svg" xmlns:xlink="http://www.w3.org/1999/xlink"><linearGradient id="SVGID_1_" gradientUnits="userSpaceOnUse" x1="256" x2="256" y1="481" y2="31"><stop offset="0" stop-color="#ffc2cc"/><stop offset="1" stop-color="#fff2f4"/></linearGradient><linearGradient id="SVGID_2_" gradientUnits="userSpaceOnUse" x1="256" x2="256" y1="512" y2="0"><stop offset="0" stop-color="#fd3a84"/><stop offset="1" stop-color="#ffa68d"/></linearGradient><g><g><g><path d="m211 286 30 103.5c4.799.899 9.901 1.5 15 1.5s10.201-.601 15-1.5l30-103.5-45-45zm90-60v-30c0-6.901-1.5-13.5-4.501-19.2l20.743-43.074-42.042 21.773c-5.7-3-12.301-4.499-19.2-4.499s-13.5 1.5-19.2 4.499l-41.966-21.847 20.667 43.148c-3.001 5.7-4.501 12.299-4.501 19.2v30c0 8.399 6.599 15 15 15h30 30c8.401 0 15-6.601 15-15zm-165 15h45c8.291 0 15-6.709 15-15s-6.709-15-15-15h-45c-8.291 0-15 6.709-15 15s6.709 15 15 15zm60 30h-60c-8.291 0-15 6.709-15 15s6.709 15 15 15h60c8.291 0 15-6.709 15-15s-6.709-15-15-15zm8.027 60h-68.027c-8.291 0-15 6.709-15 15s6.709 15 15 15h68.027c8.291 0 15-6.709 15-15s-6.709-15-15-15zm171.973-120h-45c-8.291 0-15 6.709-15 15s6.709 15 15 15h45c8.291 0 15-6.709 15-15s-6.709-15-15-15zm0 60h-60c-8.291 0-15 6.709-15 15s6.709 15 15 15h60c8.291 0 15-6.709 15-15s-6.709-15-15-15zm0 60h-68.027c-8.291 0-15 6.709-15 15s6.709 15 15 15h68.027c8.291 0 15-6.709 15-15s-6.709-15-15-15zm-120-300c-124.072 0-225 100.928-225 225s100.928 225 225 225 225-100.928 225-225-100.928-225-225-225zm0 420c-107.52 0-195-87.48-195-195s87.48-195 195-195 195 87.48 195 195-87.48 195-195 195z" fill="url(#SVGID_1_)"/></g></g><g><g><path d="m215.501 176.8c4.199-9.3 11.999-17.1 21.299-21.301l-30.3-30c-5.7-5.999-15.298-5.999-20.999 0-6 5.7-6 15.3 0 21zm80.998 0 30-30.3c6-5.7 6-15.3 0-21-5.7-5.999-15.298-5.999-20.999 0l-30.3 30c9.3 4.199 17.101 12 21.299 21.3zm-40.499-85.8c8.291 0 15-6.709 15-15v-61c0-8.291-6.709-15-15-15s-15 6.709-15 15v61c0 8.291 6.709 15 15 15zm0 330c-8.291 0-15 6.709-15 15v61c0 8.291 6.709 15 15 15s15-6.709 15-15v-61c0-8.291-6.709-15-15-15zm-180-180h-61c-8.291 0-15 6.709-15 15s6.709 15 15 15h61c8.291 0 15-6.709 15-15s-6.709-15-15-15zm421 0h-61c-8.291 0-15 6.709-15 15s6.709 15 15 15h61c8.291 0 15-6.709 15-15s-6.709-15-15-15zm-316 75c0 36.299 25.8 66.599 60 73.5v-103.5c0-8.401 6.599-15 15-15s15 6.599 15 15v103.5c34.2-6.901 60-37.202 60-73.5v-105h-150z" fill="url(#SVGID_2_)"/></g></g></g></svg>