<svg id="Capa_1" enable-background="new 0 0 512 512" height="512" viewBox="0 0 512 512" width="512" xmlns="http://www.w3.org/2000/svg" xmlns:xlink="http://www.w3.org/1999/xlink"><linearGradient id="SVGID_1_" gradientUnits="userSpaceOnUse" x1="256" x2="256" y1="451" y2="46"><stop offset="0" stop-color="#ffc2cc"/><stop offset="1" stop-color="#fff2f4"/></linearGradient><linearGradient id="SVGID_2_" gradientUnits="userSpaceOnUse" x1="256" x2="256" y1="496" y2="16"><stop offset="0" stop-color="#fd3a84"/><stop offset="1" stop-color="#ffa68d"/></linearGradient><g><g><g><path d="m256 211c-66.182 0-120 53.833-120 120s53.818 120 120 120 120-53.833 120-120-53.818-120-120-120zm211-165h-422c-24.853 0-45 20.147-45 45v75c0 16.569 13.431 30 30 30h452c16.569 0 30-13.431 30-30v-75c0-24.853-20.147-45-45-45z" fill="url(#SVGID_1_)"/></g></g><g><g><path d="m286 316h-15v-15c0-8.291-6.709-15-15-15s-15 6.709-15 15v30c0 8.291 6.709 15 15 15h30c8.291 0 15-6.709 15-15s-6.709-15-15-15zm-286-150v315c0 8.284 6.716 15 15 15h482c8.284 0 15-6.716 15-15v-315zm359.033 185.575c-7.838 41.044-41.414 74.62-82.458 82.458-73.853 14.103-137.71-49.755-123.607-123.607 7.838-41.044 41.414-74.62 82.458-82.458 73.852-14.103 137.709 49.754 123.607 123.607zm-253.033-215.575h30c8.291 0 15-6.709 15-15s-6.709-15-15-15h-15v-75c0-8.291-6.709-15-15-15s-15 6.709-15 15v90c0 8.291 6.709 15 15 15zm270 0h30c8.291 0 15-6.709 15-15s-6.709-15-15-15h-15v-75c0-8.291-6.709-15-15-15s-15 6.709-15 15v90c0 8.291 6.709 15 15 15z" fill="url(#SVGID_2_)"/></g></g></g></svg>