<svg id="Capa_1" enable-background="new 0 0 512 512" height="512" viewBox="0 0 512 512" width="512" xmlns="http://www.w3.org/2000/svg" xmlns:xlink="http://www.w3.org/1999/xlink"><linearGradient id="SVGID_1_" gradientUnits="userSpaceOnUse" x1="256" x2="256" y1="467" y2="32"><stop offset="0" stop-color="#c3ffe8"/><stop offset=".9973" stop-color="#f0fff4"/></linearGradient><linearGradient id="SVGID_2_" gradientUnits="userSpaceOnUse" x1="256" x2="256" y1="512" y2="0"><stop offset="0" stop-color="#00b59c"/><stop offset="1" stop-color="#9cffac"/></linearGradient><g><g><g><path d="m45 467h422v-300h-422zm422-435h-422c-24.814 0-45 20.186-45 45v45c0 16.568 13.431 30 30 30h452c16.569 0 30-13.432 30-30v-45c0-24.814-20.186-45-45-45z" fill="url(#SVGID_1_)"/></g></g><g><g><path d="m0 122v375c0 8.399 6.599 15 15 15h482c8.401 0 15-6.601 15-15v-375zm376 270h73.5c-6.901 34.2-37.2 60-73.5 60-23.401 0-45.601-11.4-59.7-30h-120.6c-14.099 18.6-36.299 30-59.7 30-36.301 0-66.599-25.8-73.5-60h73.5c8.401 0 15-6.601 15-15 0-8.401-6.599-15-15-15h-73.5c6.901-34.2 37.2-60 73.5-60 23.401 0 45.601 11.4 59.7 30h120.6c14.099-18.6 36.299-30 59.7-30 36.301 0 66.599 25.8 73.5 60h-73.5c-8.401 0-15 6.599-15 15 0 8.399 6.599 15 15 15zm60-150h-165v15c0 8.399-6.599 15-15 15h-150c-24.901 0-45-20.102-45-45 0-24.9 20.099-45 45-45h150c8.401 0 15 6.599 15 15v15h165c8.401 0 15 6.599 15 15 0 8.399-6.599 15-15 15zm-330-150c8.291 0 15-6.709 15-15v-62c0-8.291-6.709-15-15-15s-15 6.709-15 15v62c0 8.291 6.709 15 15 15zm300 0c8.291 0 15-6.709 15-15v-62c0-8.291-6.709-15-15-15s-15 6.709-15 15v62c0 8.291 6.709 15 15 15zm-150 0c8.291 0 15-6.709 15-15v-62c0-8.291-6.709-15-15-15s-15 6.709-15 15v62c0 8.291 6.709 15 15 15z" fill="url(#SVGID_2_)"/></g></g></g></svg>