<svg id="Capa_1" enable-background="new 0 0 512 512" height="512" viewBox="0 0 512 512" width="512" xmlns="http://www.w3.org/2000/svg" xmlns:xlink="http://www.w3.org/1999/xlink"><linearGradient id="SVGID_1_" gradientUnits="userSpaceOnUse" x1="241" x2="241" y1="481" y2="31"><stop offset="0" stop-color="#5558ff"/><stop offset="1" stop-color="#00c0ff"/></linearGradient><linearGradient id="SVGID_2_" gradientUnits="userSpaceOnUse" x1="286.5" x2="286.5" y1="481" y2="31"><stop offset="0" stop-color="#addcff"/><stop offset=".5028" stop-color="#eaf6ff"/><stop offset="1" stop-color="#eaf6ff"/></linearGradient><g id="Newspaper_1_"><g><g><path d="m422 181v-45l-75-30-30-75h-277c-22.091 0-40 17.909-40 40l1 365c0 24.75 19.25 45 44 45h422l15-45z" fill="url(#SVGID_1_)"/></g></g><g><g><path d="m332 136h90c0-3.9-1.501-7.8-4.501-10.501l-90-90c-2.699-2.999-6.599-4.499-10.499-4.499v90c0 8.284 6.716 15 15 15zm165 45h-75v255c0 24.899 20.098 45 45 45 24.3 0 45-19.623 45-45v-240c0-8.401-6.599-15-15-15zm-421-30h180c8.291 0 15-6.709 15-15s-6.709-15-15-15h-180c-8.291 0-15 6.709-15 15s6.709 15 15 15zm270 30h-270c-8.291 0-15 6.709-15 15v90c0 8.291 6.709 15 15 15h270c8.291 0 15-6.709 15-15v-90c0-8.291-6.709-15-15-15zm-270 180h60c8.291 0 15-6.709 15-15s-6.709-15-15-15h-60c-8.291 0-15 6.709-15 15s6.709 15 15 15zm270-30h-150c-8.291 0-15 6.709-15 15s6.709 15 15 15h150c8.291 0 15-6.709 15-15s-6.709-15-15-15zm-120 60h-150c-8.291 0-15 6.709-15 15s6.709 15 15 15h150c8.291 0 15-6.709 15-15s-6.709-15-15-15zm120 0h-60c-8.291 0-15 6.709-15 15s6.709 15 15 15h60c8.291 0 15-6.709 15-15s-6.709-15-15-15z" fill="url(#SVGID_2_)"/></g></g></g></svg>