<svg id="Capa_1" enable-background="new 0 0 512.2 512.2" height="512" viewBox="0 0 512.2 512.2" width="512" xmlns="http://www.w3.org/2000/svg" xmlns:xlink="http://www.w3.org/1999/xlink"><linearGradient id="SVGID_1_" gradientUnits="userSpaceOnUse" x1="256.1" x2="256.1" y1="467.2" y2="0"><stop offset="0" stop-color="#00b59c"/><stop offset="1" stop-color="#9cffac"/></linearGradient><linearGradient id="SVGID_2_" gradientUnits="userSpaceOnUse" x1="256.1" x2="256.1" y1="512.2" y2="120.2"><stop offset="0" stop-color="#c3ffe8"/><stop offset=".9973" stop-color="#f0fff4"/></linearGradient><g id="Online_Support_3_"><g><g><path d="m346.1 270.2h-60c-3.984 0-7.793 1.582-10.605 4.395l-19.395 19.394-19.395-19.395c-2.813-2.813-6.621-4.395-10.605-4.395h-60c-41.367 0-75 33.647-75 75v32c0 8.291 6.709 15 15 15h300c8.291 0 15-6.709 15-15v-32c0-41.352-33.633-74.999-75-74.999zm-193.801-90c1.501 10.499 4.501 20.7 9.3 30l64.501 30 45-45-11.325-17.1 101.325-57.9v-15c0-59.264-50.102-108.748-110.7-105-56.027 3.15-99.3 54.432-99.3 110.099v9.901l31.853 35.345zm103.801 227c-16.553 0-30 13.462-30 30s13.447 30 30 30 30-13.462 30-30-13.447-30-30-30z" fill="url(#SVGID_1_)"/></g></g><g><g><path d="m447.936 367.971c-2.842-3.647-7.207-5.771-11.836-5.771h-360c-4.629 0-8.994 2.124-11.836 5.771-2.842 3.633-3.838 8.379-2.725 12.861l30 120c1.67 6.68 7.676 11.367 14.561 11.367h300c6.885 0 12.891-4.688 14.561-11.367l30-120c1.113-4.482.117-9.228-2.725-12.861zm-191.836 84.229c-8.284 0-15-6.716-15-15 0-8.286 6.716-15 15-15s15 6.714 15 15c0 8.284-6.716 15-15 15zm-30-272c8.401 0 15 6.599 15 15 0 8.399-6.599 15-15 15h-64.501c10.201 21.299 27.601 39 49.501 49.499v25.501c0 3.9 1.5 7.8 4.501 10.499l30 30c2.699 3.001 6.599 4.501 10.499 4.501s7.8-1.5 10.499-4.501l30-30c3.001-2.699 4.501-6.599 4.501-10.499v-25.501c36.301-17.399 60-54.3 60-94.499v-45h-75c-8.401 0-15 6.599-15 15 0 8.399-6.599 15-15 15s-15-6.601-15-15c0-8.401-6.599-15-15-15h-75v45c0 5.099.3 9.899 1.199 15z" fill="url(#SVGID_2_)"/></g></g></g></svg>