<svg id="Capa_1" enable-background="new 0 0 512 512" height="512" viewBox="0 0 512 512" width="512" xmlns="http://www.w3.org/2000/svg" xmlns:xlink="http://www.w3.org/1999/xlink"><linearGradient id="SVGID_1_" gradientTransform="matrix(.707 .707 -.707 .707 264.473 679.742)" gradientUnits="userSpaceOnUse" x1="-305.622" x2="-305.622" y1="-129.382" y2="-599.967"><stop offset="0" stop-color="#00b59c"/><stop offset="1" stop-color="#9cffac"/></linearGradient><linearGradient id="SVGID_2_" gradientUnits="userSpaceOnUse" x1="86.794" x2="348.449" y1="425.206" y2="163.551"><stop offset="0" stop-color="#c3ffe8"/><stop offset=".9973" stop-color="#f0fff4"/></linearGradient><g><path d="m249.454 481.749-219.203-219.203 258.153-258.153c2.813-2.813 6.628-4.393 10.607-4.393h127.989c3.978 0 7.794 1.58 10.606 4.393l70 70c2.814 2.814 4.394 6.629 4.394 10.607v127.989c0 3.978-1.58 7.794-4.393 10.607zm127.696-389.325c-11.716 11.716-11.716 30.711 0 42.426 11.716 11.716 30.711 11.716 42.426 0s11.716-30.711 0-42.426c-11.716-11.716-30.711-11.716-42.426 0z" fill="url(#SVGID_1_)"/><path d="m30.251 262.546 219.203 219.203-14.168 14.168c-21.445 21.444-56.338 21.444-77.782 0l-141.421-141.421c-21.445-21.445-21.445-56.337 0-77.782zm323.05-38.042c-.567 8.265-7.727 14.505-15.992 13.938-8.229-.565-14.449-7.664-13.945-15.883.006-.527-.044-4.574-2.71-9.866l-36.972 36.972c1.308 2.862 2.641 5.697 3.963 8.465 6.526 13.661 7.934 27.867 4.072 41.08-3.458 11.833-11.2 22.507-21.801 30.056-11.406 8.123-25.38 12.272-39.346 11.681-10.516-.445-20.432-3.485-29.276-8.894l-8.342 8.342c-5.858 5.858-15.355 5.858-21.213 0s-5.858-15.355 0-21.213l7.36-7.36c-8.374-9.832-13.454-19.652-17.129-37.232-1.695-8.109 3.504-16.057 11.613-17.752 8.109-1.696 16.057 3.503 17.752 11.613 2.16 10.335 4.399 15.995 9.092 22.042l47.812-47.812c-3.926-10.495-6.133-19.001-7.078-26.819-1.956-16.189 6.265-32.69 21.455-43.062 16.573-11.317 37.369-12.708 54.271-3.632 1.067.573 2.098 1.16 3.108 1.756l7.307-7.307c5.858-5.858 15.355-5.858 21.213 0s5.858 15.355 0 21.213l-6.119 6.119c9.098 12.648 11.449 25.634 10.905 33.555zm-92.195 47.739-37.311 37.311c10.422 3.287 21.244.6 28.72-4.725 4.147-2.953 16.781-13.905 8.591-32.586zm36.168-78.595c-6.672-1.365-13.248.861-17.739 3.928-5.816 3.972-9.188 9.737-8.589 14.687.248 2.055.67 4.239 1.208 6.505z" fill="url(#SVGID_2_)"/></g></svg>