<svg id="Capa_1" enable-background="new 0 0 512.022 512.022" height="512" viewBox="0 0 512.022 512.022" width="512" xmlns="http://www.w3.org/2000/svg" xmlns:xlink="http://www.w3.org/1999/xlink"><linearGradient id="SVGID_1_" gradientUnits="userSpaceOnUse" x1="256.011" x2="256.011" y1="460.711" y2="181.011"><stop offset="0" stop-color="#ffe59a"/><stop offset="1" stop-color="#ffffd5"/></linearGradient><linearGradient id="SVGID_2_" gradientUnits="userSpaceOnUse" x1="256.011" x2="256.011" y1="512.011" y2=".011"><stop offset="0" stop-color="#fd5900"/><stop offset="1" stop-color="#ffde00"/></linearGradient><g id="Checkmark_1_"><g><g><path d="m437.011 181.011h-362c-8.401 0-15 6.599-15 15v234.699l196 30 196-30v-234.699c0-8.401-6.599-15-15-15z" fill="url(#SVGID_1_)"/></g></g><g><g><path d="m507.51 486.51-55.499-55.8h-392l-55.499 55.8c-4.501 4.2-5.7 10.501-3.301 16.201 2.401 5.7 7.8 9.3 13.801 9.3h482c6 0 11.4-3.6 13.801-9.3 2.398-5.7 1.198-12.001-3.303-16.201zm-446.323-397.605-5.244 31.523c-.938 5.596 1.377 11.25 5.977 14.59 4.6 3.354 10.693 3.779 15.732 1.187l28.359-14.722 28.359 14.722c4.988 2.595 11.115 2.186 15.732-1.187 4.6-3.34 6.914-8.994 5.977-14.59l-5.244-31.523 22.764-22.412c4.043-3.984 5.508-9.917 3.75-15.322s-6.416-9.36-12.041-10.21l-31.582-4.746-14.297-28.579c-5.098-10.166-21.738-10.166-26.836 0l-14.297 28.579-31.582 4.746c-5.625.85-10.283 4.805-12.041 10.21s-.293 11.338 3.75 15.322zm150 0-5.244 31.523c-.938 5.596 1.377 11.25 5.977 14.59 4.6 3.354 10.723 3.779 15.732 1.187l28.359-14.722 28.359 14.722c4.988 2.595 11.115 2.186 15.732-1.187 4.6-3.34 6.914-8.994 5.977-14.59l-5.244-31.523 22.764-22.412c4.043-3.984 5.508-9.917 3.75-15.322s-6.416-9.36-12.041-10.21l-31.582-4.746-14.297-28.579c-5.098-10.166-21.738-10.166-26.836 0l-14.297 28.579-31.582 4.746c-5.625.85-10.283 4.805-12.041 10.21s-.293 11.338 3.75 15.322zm150 0-5.244 31.523c-.938 5.596 1.377 11.25 5.977 14.59 4.57 3.354 10.693 3.779 15.732 1.187l28.359-14.722 28.359 14.722c4.988 2.595 11.115 2.186 15.732-1.187 4.6-3.34 6.914-8.994 5.977-14.59l-5.244-31.523 22.764-22.412c4.043-3.984 5.508-9.917 3.75-15.322s-6.416-9.36-12.041-10.21l-31.582-4.746-14.297-28.579c-5.098-10.166-21.738-10.166-26.836 0l-14.297 28.579-31.582 4.746c-5.625.85-10.283 4.805-12.041 10.21s-.293 11.338 3.75 15.322zm-240.176 288.106c0 8.291 6.709 15 15 15h240c8.291 0 15-6.709 15-15s-6.709-15-15-15h-240c-8.291 0-15 6.709-15 15zm123.75-52.006c3.838 0 7.676-1.465 10.605-4.395l45-45c5.859-5.859 5.859-15.352 0-21.211s-15.352-5.859-21.211 0l-34.395 34.395-11.893-11.894c-5.859-5.859-15.352-5.859-21.211 0s-5.859 15.352 0 21.211l22.5 22.5c2.929 2.93 6.767 4.394 10.605 4.394z" fill="url(#SVGID_2_)"/></g></g></g></svg>