<svg id="Capa_1" enable-background="new 0 0 512 512" height="512" viewBox="0 0 512 512" width="512" xmlns="http://www.w3.org/2000/svg" xmlns:xlink="http://www.w3.org/1999/xlink"><linearGradient id="SVGID_1_" gradientUnits="userSpaceOnUse" x1="256" x2="256" y1="496" y2="16"><stop offset="0" stop-color="#5558ff"/><stop offset="1" stop-color="#00c0ff"/></linearGradient><linearGradient id="SVGID_2_" gradientUnits="userSpaceOnUse" x1="286.5" x2="286.5" y1="406" y2="16"><stop offset="0" stop-color="#addcff"/><stop offset=".5028" stop-color="#eaf6ff"/><stop offset="1" stop-color="#eaf6ff"/></linearGradient><g><g><g><path d="m256 61-105-45h-136c-8.401 0-15 6.599-15 15v450c0 8.399 6.599 15 15 15h482c8.401 0 15-6.601 15-15v-390z" fill="url(#SVGID_1_)"/></g></g><g><g><path d="m497 16h-346l70.607 70.607c2.813 2.813 6.628 4.393 10.606 4.393h279.787v-60c0-8.401-6.599-15-15-15zm-346 75c0-8.291-6.709-15-15-15h-60c-8.291 0-15 6.709-15 15s6.709 15 15 15h60c8.291 0 15-6.709 15-15zm105 75c-90.901 0-165 74.099-165 165 0 22.8 4.501 45 13.801 66 2.398 5.4 7.798 9 13.799 9h274.8c6 0 11.4-3.6 13.799-9 9.3-21 13.801-43.2 13.801-66 0-90.901-74.099-165-165-165zm90 180c-8.401 0-15-6.601-15-15 0-15.3-4.501-29.401-12.6-41.4l-51.901 51.899c-5.396 6-15.6 6.002-20.999 0-6-5.7-6-15.3 0-21l51.9-51.899c-12.001-8.101-26.1-12.6-41.4-12.6-41.4 0-75 33.6-75 75 0 8.399-6.599 15-15 15s-15-6.601-15-15c0-57.9 47.1-105 105-105s105 47.1 105 105c0 8.399-6.599 15-15 15z" fill="url(#SVGID_2_)"/></g></g></g></svg>