<svg id="OBJECTS" xmlns="http://www.w3.org/2000/svg" xmlns:xlink="http://www.w3.org/1999/xlink" viewBox="0 0 505.21 353"><defs><clipPath id="clip-path"><rect width="505.21" height="353" rx="22.22" style="fill:none"/></clipPath></defs><title>4849149</title><g style="clip-path:url(#clip-path)"><path d="M1.41,366.43a42.73,42.73,0,0,1,9.55-44,42.73,42.73,0,0,1,43.93-9.77c11,4,19.78,12.4,30.1,17.91s24.38,7.47,32.76-.68,6.75-22.58,1.1-33S104.43,278,99.5,267.29a47.1,47.1,0,0,1,50.87-66c16.77,2.91,31.22,14.72,48.16,16.41,21.45,2.14,42.95-15.2,45.42-36.61,2-17.17-6.81-33.71-16.87-47.76S205.17,106,199.47,89.68c-7.66-22-2-48.54,15.49-63.87s46.18-17,64-2.09c14.47,12.06,20.21,31.78,33.05,45.57,19.67,21.13,56.18,23.51,78.44,5.12,11.37-9.39,18.82-22.9,30.32-32.14s30.63-12.46,39.7-.82c9.37,12,4.41,34.82,18.85,39.71,5.77,2,12-.42,18.1-.67s13.6,3.74,12.56,9.75V363.75Z" style="fill:#ddfaf1"/><polygon points="126.59 242.74 125.06 248.45 123.53 254.15 119.36 249.98 115.18 245.8 120.88 244.27 126.59 242.74" style="fill:#20c997"/><polygon points="273.04 47.52 271.51 53.22 269.98 58.93 265.81 54.75 261.63 50.58 267.33 49.05 273.04 47.52" style="fill:#20c997"/><polygon points="135.25 32.07 133.73 37.77 132.2 43.48 128.02 39.3 123.85 35.13 129.55 33.6 135.25 32.07" style="fill:#20c997"/><polygon points="396.4 305.21 394.87 310.92 393.35 316.62 389.17 312.45 385 308.27 390.7 306.74 396.4 305.21" style="fill:#20c997"/><polygon points="430.87 1.99 429.34 7.69 427.81 13.39 423.64 9.22 419.46 5.04 425.16 3.51 430.87 1.99" style="fill:#20c997"/><polygon points="500.21 231.54 498.69 237.25 497.16 242.95 492.98 238.78 488.81 234.6 494.51 233.07 500.21 231.54" style="fill:#20c997"/><polygon points="246.22 262.99 244.7 268.69 243.17 274.39 238.99 270.22 234.82 266.04 240.52 264.51 246.22 262.99" style="fill:#20c997"/><circle cx="205.76" cy="244" r="64.91" transform="translate(-112.27 216.96) rotate(-45)" style="fill:none;stroke:#20c997;stroke-miterlimit:10"/><circle cx="287.15" cy="78.44" r="64.91" style="fill:none;stroke:#20c997;stroke-miterlimit:10"/><circle cx="342.31" cy="272.26" r="32.45" style="fill:none;stroke:#20c997;stroke-miterlimit:10"/><circle cx="456.47" cy="215.59" r="64.91" transform="matrix(0.16, -0.99, 0.99, 0.16, 171.88, 632.55)" style="fill:none;stroke:#20c997;stroke-miterlimit:10"/><path d="M193.1,28.9a1.5,1.5,0,0,0,0-3,1.5,1.5,0,0,0,0,3Z" style="fill:#20c997"/><path d="M488.22,47a1.5,1.5,0,0,0,0-3,1.5,1.5,0,0,0,0,3Z" style="fill:#20c997"/><path d="M439.37,309.92a1.5,1.5,0,0,0,0-3,1.5,1.5,0,0,0,0,3Z" style="fill:#20c997"/><path d="M351.74,274.66a1.5,1.5,0,0,0,0-3,1.5,1.5,0,0,0,0,3Z" style="fill:#20c997"/><path d="M196.12,293.8a1.5,1.5,0,0,0,0-3,1.5,1.5,0,0,0,0,3Z" style="fill:#20c997"/><path d="M325.05,60.62a1.5,1.5,0,0,0,0-3,1.5,1.5,0,0,0,0,3Z" style="fill:#20c997"/><path d="M112,166.37c3.86,0,3.87-6,0-6s-3.87,6,0,6Z" style="fill:#20c997"/><path d="M354.76,20.83c3.86,0,3.87-6,0-6s-3.86,6,0,6Z" style="fill:#20c997"/><path d="M500.81,139.18c3.86,0,3.87-6,0-6s-3.86,6,0,6Z" style="fill:#20c997"/><path d="M257.06,315.49h-.5a2.2,2.2,0,0,0-1.16.26,2.25,2.25,0,0,0-1,.62,2.16,2.16,0,0,0-.62,1,2.22,2.22,0,0,0-.26,1.16l.1.8a3,3,0,0,0,.78,1.32l.6.47a3,3,0,0,0,1.52.41h.5a2.22,2.22,0,0,0,1.16-.26,2.72,2.72,0,0,0,1.58-1.58,2.22,2.22,0,0,0,.26-1.16c0-.27-.07-.53-.11-.8a2.94,2.94,0,0,0-.77-1.32l-.6-.47a3,3,0,0,0-1.52-.41Z" style="fill:#20c997"/><path d="M215.83,130.43C218,112,220.22,93.2,216.58,75c-1.37-6.89-4.63-14.65-11.47-16.26-3.78-.89-7.81.45-11,2.7s-5.95,4-8.36,7.06c-2.19-5.53-3.17-11.45-4.84-17.16s-4.18-11.42-8.7-15.3-11.43-5.42-16.54-2.37c-3.52,2.11-5.61,5.94-7.21,9.73-7.94,18.75-6.31,39.36,2.49,57.73-2.47-3.87-5-7.82-8.76-10.49s-9-3.79-12.94-1.53c-4.48,2.55-6,8.26-6.46,13.39-2.61,26.51,9.66,53.61,31.6,68.71-5.79-8.28-19.83-8.73-26.13-.83-6.41,8.05-3.89,20,.53,29.26a92.27,92.27,0,0,0,64.88,50.12c9.21-18.34,16.38-38.14,22.91-57.59C223,173,213.43,150.55,215.83,130.43Z" style="fill:#88d1a7"/><path d="M189.09,229.7A942,942,0,0,1,163.28,59.49" style="fill:none;stroke:#fff;stroke-linecap:round;stroke-linejoin:round"/><path d="M139.17,107.75a54.65,54.65,0,0,0,32.28,33.52" style="fill:none;stroke:#fff;stroke-linecap:round;stroke-linejoin:round"/><path d="M200.81,73.43a66.06,66.06,0,0,1-32.76,43.5" style="fill:none;stroke:#fff;stroke-linecap:round;stroke-linejoin:round"/><path d="M139.46,181.24a53.63,53.63,0,0,0,43.31,22.95" style="fill:none;stroke:#fff;stroke-linecap:round;stroke-linejoin:round"/><path d="M400,130.43C397.78,112,395.59,93.2,399.23,75c1.37-6.89,4.63-14.65,11.47-16.26,3.78-.89,7.81.45,11,2.7s6,4,8.37,7.06c2.19-5.53,3.17-11.45,4.84-17.16s4.18-11.42,8.7-15.3,11.43-5.42,16.53-2.37c3.53,2.11,5.62,5.94,7.22,9.73,7.94,18.75,6.31,39.36-2.49,57.73,2.47-3.87,5-7.82,8.76-10.49s8.95-3.79,12.93-1.53c4.49,2.55,6,8.26,6.47,13.39,2.61,26.51-9.66,53.61-31.6,68.71,5.79-8.28,19.83-8.73,26.13-.83,6.41,8.05,3.89,20-.53,29.26a92.27,92.27,0,0,1-64.88,50.12c-9.21-18.34-16.38-38.14-22.91-57.59C392.77,173,402.37,150.55,400,130.43Z" style="fill:#88d1a7"/><path d="M426.72,229.7A942,942,0,0,0,452.53,59.49" style="fill:none;stroke:#fff;stroke-linecap:round;stroke-linejoin:round"/><path d="M476.64,107.75a54.65,54.65,0,0,1-32.28,33.52" style="fill:none;stroke:#fff;stroke-linecap:round;stroke-linejoin:round"/><path d="M415,73.43a66.07,66.07,0,0,0,32.75,43.5" style="fill:none;stroke:#fff;stroke-linecap:round;stroke-linejoin:round"/><path d="M476.35,181.24A53.63,53.63,0,0,1,433,204.19" style="fill:none;stroke:#fff;stroke-linecap:round;stroke-linejoin:round"/><path d="M377.28,120.29l12.61-12.6L382.18,100a.83.83,0,0,1,.07-.13h10.64V82H382.17a1.78,1.78,0,0,0-.12-.24l7.43-7.43-12.61-12.6-7.42,7.42A2.8,2.8,0,0,0,369,69V58.76H351.2v10.3a4.41,4.41,0,0,0-.54.24l-7.13-7.13L330.92,74.79l7.28,7.28a5.1,5.1,0,0,1-.19.55H327.94v17.84h10.49a2.54,2.54,0,0,1,.18.41l-7.24,7.25,12.6,12.6,7.59-7.59.25.08,0,10.51h17.84V112.8c.05,0,.08,0,.11,0Zm-27.93-18.42a15.34,15.34,0,1,1,21.7,0A15.34,15.34,0,0,1,349.35,101.87Z" style="fill:#92e8b5"/><path d="M379.31,62.55h9.54V56.72l.07,0,4,4L399.68,54l-4.05-4a1.21,1.21,0,0,0,.05-.14h5.61V40.26h-5.61a2.34,2.34,0,0,0-.09-.24l3.87-3.87-6.74-6.73-3.9,3.89-.29-.11V27.81H379v5.5l-.28.14-3.81-3.8-6.74,6.74,4,4a2,2,0,0,1-.08.22h-5.48v9.53h5.74a.49.49,0,0,0,.06.13l-4,4L375.12,61l4.13-4.13.06,0ZM375.72,45a8.2,8.2,0,1,1,8.21,8.2A8.2,8.2,0,0,1,375.72,45Z" style="fill:#92e8b5"/><rect x="281.81" y="248.45" width="43.77" height="49.15" style="fill:#20756b"/><rect x="281.81" y="248.45" width="43.77" height="17.08" style="fill:#004448"/><path d="M270.94,285.69h65.51a8.29,8.29,0,0,1,8.29,8.29v5.44a0,0,0,0,1,0,0h-82.1a0,0,0,0,1,0,0V294A8.29,8.29,0,0,1,270.94,285.69Z" style="fill:#004448"/><rect x="182.22" y="95.51" width="242.94" height="158.6" rx="8.01" style="fill:#20756b"/><rect x="230.83" y="59.77" width="145.74" height="230.08" rx="3.23" transform="translate(478.51 -128.88) rotate(90)" style="fill:#fff"/><rect x="129.55" y="72.01" width="113.26" height="71.79" rx="2.2" style="fill:#77c58b"/><rect x="154.12" y="54.84" width="64.13" height="110.14" rx="1.74" transform="translate(296.09 -76.27) rotate(90)" style="fill:#fff"/><circle cx="239.09" cy="74.93" r="1.43" style="fill:#fff"/><circle cx="234.35" cy="74.93" r="1.43" style="fill:#fff"/><path d="M231,74.93a1.43,1.43,0,1,1-1.43-1.44A1.43,1.43,0,0,1,231,74.93Z" style="fill:#fff"/><path d="M146.65,89.32a5.8,5.8,0,1,1-5.79-5.8A5.79,5.79,0,0,1,146.65,89.32Z" style="fill:#ffcd6e"/><rect x="149.32" y="83.57" width="86.47" height="2.74" style="fill:#ddfaf1"/><rect x="149.32" y="87.95" width="58.85" height="2.74" style="fill:#ddfaf1"/><rect x="149.32" y="92.61" width="30.6" height="2.74" style="fill:#ddfaf1"/><path d="M146.65,107.79a5.8,5.8,0,1,1-5.79-5.8A5.8,5.8,0,0,1,146.65,107.79Z" style="fill:#3da0b8"/><rect x="149.32" y="102.04" width="86.47" height="2.74" style="fill:#ddfaf1"/><rect x="149.32" y="106.42" width="58.85" height="2.74" style="fill:#ddfaf1"/><rect x="149.32" y="111.07" width="30.6" height="2.74" style="fill:#ddfaf1"/><path d="M146.65,126.26a5.8,5.8,0,1,1-5.79-5.8A5.8,5.8,0,0,1,146.65,126.26Z" style="fill:#ff5e63"/><rect x="149.32" y="120.5" width="86.47" height="2.74" style="fill:#ddfaf1"/><rect x="149.32" y="124.89" width="58.85" height="2.74" style="fill:#ddfaf1"/><rect x="149.32" y="129.54" width="30.6" height="2.74" style="fill:#ddfaf1"/><polyline points="248.19 149.15 248.19 150.65 246.69 150.65" style="fill:none;stroke:#20926b;stroke-miterlimit:10"/><line x1="243.71" y1="150.65" x2="126.32" y2="150.65" style="fill:none;stroke:#20926b;stroke-miterlimit:10;stroke-dasharray:2.9721415042877197,2.9721415042877197"/><polyline points="124.83 150.65 123.33 150.65 123.33 149.15" style="fill:none;stroke:#20926b;stroke-miterlimit:10"/><line x1="123.33" y1="146.12" x2="123.33" y2="68.86" style="fill:none;stroke:#20926b;stroke-miterlimit:10;stroke-dasharray:3.029555559158325,3.029555559158325"/><polyline points="123.33 67.35 123.33 65.85 124.83 65.85" style="fill:none;stroke:#20926b;stroke-miterlimit:10"/><line x1="127.8" y1="65.85" x2="245.2" y2="65.85" style="fill:none;stroke:#20926b;stroke-miterlimit:10;stroke-dasharray:2.9721415042877197,2.9721415042877197"/><polyline points="246.69 65.85 248.19 65.85 248.19 67.35" style="fill:none;stroke:#20926b;stroke-miterlimit:10"/><line x1="248.19" y1="70.38" x2="248.19" y2="147.63" style="fill:none;stroke:#20926b;stroke-miterlimit:10;stroke-dasharray:3.029555559158325,3.029555559158325"/><rect x="120.88" y="63.4" width="4.89" height="4.89" style="fill:#20926b"/><rect x="120.88" y="148.2" width="4.89" height="4.89" style="fill:#20926b"/><rect x="245.74" y="63.4" width="4.89" height="4.89" style="fill:#20926b"/><rect x="245.74" y="148.2" width="4.89" height="4.89" style="fill:#38356e"/><rect x="381.49" y="213.12" width="87.35" height="60.67" rx="2.2" style="fill:#77c58b"/><rect x="398.06" y="202.8" width="54.2" height="84.71" rx="1.4" transform="translate(670.32 -180.01) rotate(90)" style="fill:#fff"/><path d="M466.9,215.59a1.21,1.21,0,1,1-1.21-1.21A1.21,1.21,0,0,1,466.9,215.59Z" style="fill:#fff"/><path d="M462.9,215.59a1.22,1.22,0,1,1-1.21-1.21A1.21,1.21,0,0,1,462.9,215.59Z" style="fill:#fff"/><path d="M458.89,215.59a1.21,1.21,0,1,1-1.21-1.21A1.21,1.21,0,0,1,458.89,215.59Z" style="fill:#fff"/><circle cx="425.16" cy="245.15" r="12.58" transform="translate(82.97 596.96) rotate(-75.76)" style="fill:#88d1a7"/><polygon points="432.52 245.16 426.7 248.52 420.87 251.88 420.87 245.16 420.87 238.43 426.7 241.79 432.52 245.16" style="fill:#fff"/><rect x="382.81" y="266.58" width="84.71" height="1.67" style="fill:#ddfaf1"/><rect x="382.81" y="266.58" width="19.08" height="1.67" style="fill:#ff5e63"/><circle cx="401.89" cy="267.41" r="1.28" style="fill:#ff5e63"/><polyline points="473.51 277.41 473.51 278.91 472.01 278.91" style="fill:none;stroke:#20926b;stroke-miterlimit:10"/><line x1="468.99" y1="278.91" x2="379.83" y2="278.91" style="fill:none;stroke:#20926b;stroke-miterlimit:10;stroke-dasharray:3.022493362426758,3.022493362426758"/><polyline points="378.32 278.91 376.82 278.91 376.82 277.41" style="fill:none;stroke:#20926b;stroke-miterlimit:10"/><line x1="376.82" y1="274.51" x2="376.82" y2="212.05" style="fill:none;stroke:#20926b;stroke-miterlimit:10;stroke-dasharray:2.9051260948181152,2.9051260948181152"/><polyline points="376.82 210.59 376.82 209.09 378.32 209.09" style="fill:none;stroke:#20926b;stroke-miterlimit:10"/><line x1="381.34" y1="209.1" x2="470.5" y2="209.1" style="fill:none;stroke:#20926b;stroke-miterlimit:10;stroke-dasharray:3.022493362426758,3.022493362426758"/><polyline points="472.01 209.09 473.51 209.09 473.51 210.59" style="fill:none;stroke:#20926b;stroke-miterlimit:10"/><line x1="473.51" y1="213.5" x2="473.51" y2="275.96" style="fill:none;stroke:#20926b;stroke-miterlimit:10;stroke-dasharray:2.9051260948181152,2.9051260948181152"/><rect x="374.92" y="207.2" width="3.79" height="3.79" style="fill:#38356e"/><rect x="374.92" y="277.02" width="3.79" height="3.79" style="fill:#20926b"/><rect x="471.62" y="207.2" width="3.79" height="3.79" style="fill:#20926b"/><rect x="471.62" y="277.02" width="3.79" height="3.79" style="fill:#20926b"/><path d="M454.49,117.89H413.14a1.46,1.46,0,0,1-1.46-1.47V86.88a1.46,1.46,0,0,1,1.46-1.46H430a1.44,1.44,0,0,1,1,.43l2.73,2.73a1.5,1.5,0,0,0,1,.43h19.74A1.46,1.46,0,0,1,456,90.47v26A1.46,1.46,0,0,1,454.49,117.89Z" style="fill:#20926b"/><polygon points="450.75 68.1 450.75 105.28 415.64 105.28 415.64 62.55 445.2 62.55 450.75 68.1" style="fill:#ecf0fd"/><polygon points="445.2 68.1 445.2 62.55 450.75 68.1 445.2 68.1" style="fill:#cbcae0"/><polygon points="452.92 70.04 452.92 107.23 417.81 107.23 417.81 64.49 447.37 64.49 452.92 70.04" style="fill:#fff"/><path d="M456.05,117.89H414.69a1.46,1.46,0,0,1-1.46-1.47V91.08a1.46,1.46,0,0,1,1.46-1.47H431.5a1.5,1.5,0,0,1,1,.43l2.73,2.73a1.42,1.42,0,0,0,1,.43h19.75a1.46,1.46,0,0,1,1.46,1.46v21.76A1.46,1.46,0,0,1,456.05,117.89Z" style="fill:#77c58b"/><polygon points="447.37 70.04 447.37 64.49 452.92 70.04 447.37 70.04" style="fill:#cbcae0"/><rect x="419.31" y="66.93" width="26.58" height="1.44" style="fill:#ddfaf1"/><rect x="419.4" y="72.38" width="31.93" height="0.91" style="fill:#ddfaf1"/><rect x="419.4" y="74.96" width="31.93" height="0.91" style="fill:#ddfaf1"/><rect x="419.4" y="77.53" width="26.24" height="0.91" style="fill:#ddfaf1"/><rect x="419.4" y="80.11" width="26.24" height="0.91" style="fill:#ddfaf1"/><rect x="419.4" y="82.69" width="17.75" height="0.91" style="fill:#ddfaf1"/><rect x="419.4" y="85.27" width="17.75" height="0.91" style="fill:#ddfaf1"/><path d="M432,202.42a24,24,0,0,0,2.21-5.71V184.54A2.54,2.54,0,0,1,436.7,182h32a2.54,2.54,0,0,1,2.54,2.54v13a2.54,2.54,0,0,1-2.54,2.53H438.4a11,11,0,0,1-5.74,3.37A.65.65,0,0,1,432,202.42Z" style="fill:#ff5e63"/><path d="M459.22,186.36a2.94,2.94,0,0,1,3.87,1.21,2.94,2.94,0,0,1,3.87-1.21,3.9,3.9,0,0,1,1.93,3.78A6,6,0,0,1,466.8,194a13.48,13.48,0,0,1-3.71,2.2,13.34,13.34,0,0,1-3.71-2.2,6,6,0,0,1-2.09-3.86A3.88,3.88,0,0,1,459.22,186.36Z" style="fill:#fff"/><path d="M440.75,187.44v7.44h-2.11v-5.82h-1.38v-1.62Z" style="fill:#fff"/><path d="M443.45,194.57a3.06,3.06,0,0,1-1.16-1.34,5.34,5.34,0,0,1,0-4.15,3.06,3.06,0,0,1,1.16-1.34,3.22,3.22,0,0,1,1.7-.45,3.19,3.19,0,0,1,1.69.45,3.08,3.08,0,0,1,1.17,1.34,5.34,5.34,0,0,1,0,4.15,3.08,3.08,0,0,1-1.17,1.34,3.19,3.19,0,0,1-1.69.46A3.23,3.23,0,0,1,443.45,194.57Zm2.55-1.78a4.47,4.47,0,0,0,0-3.27,1,1,0,0,0-.85-.51,1,1,0,0,0-.86.51,4.47,4.47,0,0,0,0,3.27,1,1,0,0,0,.86.51A1,1,0,0,0,446,192.79Z" style="fill:#fff"/><path d="M450.73,194.57a3.12,3.12,0,0,1-1.16-1.34,5.34,5.34,0,0,1,0-4.15,3.12,3.12,0,0,1,1.16-1.34,3.22,3.22,0,0,1,1.7-.45,3.19,3.19,0,0,1,1.69.45,3.08,3.08,0,0,1,1.17,1.34,5.34,5.34,0,0,1,0,4.15,3.08,3.08,0,0,1-1.17,1.34,3.19,3.19,0,0,1-1.69.46A3.23,3.23,0,0,1,450.73,194.57Zm2.55-1.78a4.47,4.47,0,0,0,0-3.27,1,1,0,0,0-.85-.51,1,1,0,0,0-.85.51,4.34,4.34,0,0,0,0,3.27,1,1,0,0,0,.85.51A1,1,0,0,0,453.28,192.79Z" style="fill:#fff"/><rect x="196.78" y="112.37" width="213.83" height="124.87" rx="4.57" style="fill:#88d1a7"/><rect x="248.48" y="74.63" width="110.42" height="207.93" rx="2.76" transform="translate(482.29 -125.09) rotate(90)" style="fill:#fff"/><path d="M406.28,117.89a2.71,2.71,0,1,1-2.71-2.71A2.7,2.7,0,0,1,406.28,117.89Z" style="fill:#fff"/><path d="M397.33,117.89a2.71,2.71,0,1,1-2.7-2.71A2.7,2.7,0,0,1,397.33,117.89Z" style="fill:#fff"/><path d="M388.39,117.89a2.71,2.71,0,1,1-2.71-2.71A2.7,2.7,0,0,1,388.39,117.89Z" style="fill:#fff"/><polyline points="284.11 184.78 284.11 186.28 282.61 186.28" style="fill:none;stroke:#38356e;stroke-linejoin:round;stroke-width:0.5px"/><line x1="279.57" y1="186.28" x2="208.11" y2="186.28" style="fill:none;stroke:#38356e;stroke-linejoin:round;stroke-width:0.5px;stroke-dasharray:3.0408079624176025,3.0408079624176025"/><polyline points="206.59 186.28 205.09 186.28 205.09 184.78" style="fill:none;stroke:#38356e;stroke-linejoin:round;stroke-width:0.5px"/><line x1="205.09" y1="181.62" x2="205.09" y2="132.63" style="fill:none;stroke:#38356e;stroke-linejoin:round;stroke-width:0.5px;stroke-dasharray:3.160399913787842,3.160399913787842"/><polyline points="205.09 131.05 205.09 129.55 206.59 129.55" style="fill:none;stroke:#38356e;stroke-linejoin:round;stroke-width:0.5px"/><line x1="209.63" y1="129.55" x2="281.09" y2="129.55" style="fill:none;stroke:#38356e;stroke-linejoin:round;stroke-width:0.5px;stroke-dasharray:3.0408079624176025,3.0408079624176025"/><polyline points="282.61 129.55 284.11 129.55 284.11 131.05" style="fill:none;stroke:#38356e;stroke-linejoin:round;stroke-width:0.5px"/><line x1="284.11" y1="134.21" x2="284.11" y2="183.2" style="fill:none;stroke:#38356e;stroke-linejoin:round;stroke-width:0.5px;stroke-dasharray:3.160399913787842,3.160399913787842"/><rect x="214.33" y="138.69" width="79.02" height="56.73" style="fill:#88d1a7"/><polygon points="288.24 190.87 219.29 190.87 241.01 149.88 257.34 178.05 268.41 166.36 288.24 190.87" style="fill:none;stroke:#fff;stroke-linecap:round;stroke-linejoin:round;stroke-width:2px"/><circle cx="260.59" cy="152.14" r="6.75" style="fill:none;stroke:#fff;stroke-linecap:round;stroke-linejoin:round;stroke-width:2px"/><rect x="302.43" y="130.43" width="98.43" height="6.05" style="fill:#ddfaf1"/><rect x="302.43" y="141.57" width="28.29" height="3.03" style="fill:#ddfaf1"/><rect x="334.58" y="141.57" width="11.48" height="3.03" style="fill:#ddfaf1"/><rect x="350.47" y="141.57" width="30.12" height="3.03" style="fill:#ddfaf1"/><rect x="382.97" y="141.57" width="17.89" height="3.03" style="fill:#ddfaf1"/><rect x="302.43" y="149.12" width="37.29" height="3.03" style="fill:#ddfaf1"/><rect x="343.86" y="149.12" width="14.51" height="3.03" style="fill:#ddfaf1"/><rect x="361.67" y="149.12" width="14.51" height="3.03" style="fill:#ddfaf1"/><rect x="378.43" y="149.12" width="18.42" height="3.03" style="fill:#ddfaf1"/><rect x="302.43" y="156.66" width="10.38" height="3.03" style="fill:#ddfaf1"/><rect x="351.11" y="156.66" width="18.64" height="3.03" style="fill:#ddfaf1"/><rect x="315.2" y="156.66" width="32.79" height="3.03" style="fill:#ddfaf1"/><rect x="302.43" y="164.2" width="23.51" height="3.03" style="fill:#ddfaf1"/><rect x="329.99" y="164.2" width="7.9" height="3.03" style="fill:#ddfaf1"/><rect x="341.56" y="164.2" width="15.52" height="3.03" style="fill:#ddfaf1"/><rect x="302.43" y="171.75" width="9" height="3.03" style="fill:#ddfaf1"/><rect x="314.83" y="171.75" width="19.75" height="3.03" style="fill:#ddfaf1"/><rect x="205.09" y="201.44" width="88.26" height="26.25" style="fill:#ddfaf1"/><rect x="207.44" y="203.22" width="16.75" height="15.58" style="fill:#fff"/><rect x="207.44" y="221.12" width="16.75" height="4.63" style="fill:#fff"/><rect x="228.78" y="210.17" width="16.75" height="15.58" transform="translate(474.31 435.92) rotate(180)" style="fill:#fff"/><rect x="228.78" y="203.22" width="16.75" height="4.63" transform="translate(474.31 411.08) rotate(180)" style="fill:#fff"/><rect x="251.78" y="203.22" width="16.75" height="15.58" style="fill:#fff"/><rect x="251.78" y="221.12" width="16.75" height="4.63" style="fill:#fff"/><rect x="273.12" y="210.17" width="16.75" height="15.58" transform="translate(563 435.92) rotate(180)" style="fill:#fff"/><rect x="273.12" y="203.22" width="16.75" height="4.63" transform="translate(563 411.08) rotate(180)" style="fill:#fff"/><path d="M403.83,185.61H304.48v-3.37a2.07,2.07,0,0,1,2.07-2.06h95.22a2.06,2.06,0,0,1,2.06,2.06Z" style="fill:#88d1a7"/><path d="M402.83,184.56v41.15a1.72,1.72,0,0,1-1.71,1.71H307.2a1.72,1.72,0,0,1-1.72-1.71V184.56h97.35m1-1H304.48v42.15a2.71,2.71,0,0,0,2.72,2.71h93.92a2.71,2.71,0,0,0,2.71-2.71V183.56Z" style="fill:#88d1a7"/><rect x="307.94" y="188.96" width="12.5" height="36.06" style="fill:#ddfaf1"/><rect x="339.09" y="188.96" width="60.4" height="36.06" style="fill:#ddfaf1"/><rect x="342.31" y="190.87" width="54.22" height="3.68" style="fill:#fff"/><rect x="342.31" y="196.76" width="54.22" height="1.84" style="fill:#fff"/><rect x="323.07" y="196.76" width="12.5" height="4.3" style="fill:#ddfaf1"/><rect x="342.31" y="200.26" width="11.66" height="22.06" style="fill:#fff"/><rect x="370.94" y="200.26" width="11.66" height="22.06" style="fill:#fff"/><path d="M369.19,222.81H356.52V199.76h12.67Zm-11.67-1h10.67V200.76H357.52Z" style="fill:#fff"/><path d="M397,222.81H384.37V199.76H397Zm-11.66-1H396V200.76H385.37Z" style="fill:#fff"/><rect x="323.07" y="204.56" width="12.5" height="4.3" style="fill:#ddfaf1"/><rect x="323.07" y="212.36" width="12.5" height="4.3" style="fill:#ddfaf1"/><rect x="323.07" y="220.16" width="12.5" height="4.3" style="fill:#ddfaf1"/><path d="M307.37,67.78H271.28a8.67,8.67,0,0,0-8.67,8.67h0a8.64,8.64,0,0,0,1,4l-2.82,5.15a1.54,1.54,0,0,0,1.95,2.16l6.74-2.85a8.86,8.86,0,0,0,1.8.19h36.09A8.67,8.67,0,0,0,316,76.45h0A8.67,8.67,0,0,0,307.37,67.78Z" style="fill:#3da0b8"/><path d="M276,76.5a3.07,3.07,0,1,1-3.06-3.06A3.06,3.06,0,0,1,276,76.5Z" style="fill:#fff"/><path d="M287.15,76.5a3.07,3.07,0,1,1-3.07-3.06A3.07,3.07,0,0,1,287.15,76.5Z" style="fill:#fff"/><path d="M298.34,76.5a3.07,3.07,0,1,1-3.07-3.06A3.06,3.06,0,0,1,298.34,76.5Z" style="fill:#fff"/><path d="M309.54,76.5a3.07,3.07,0,1,1-3.07-3.06A3.07,3.07,0,0,1,309.54,76.5Z" style="fill:#fff"/><path d="M441.41,155.65H405.32a8.67,8.67,0,0,0-8.67,8.67h0a8.59,8.59,0,0,0,1,4l-2.83,5.14a1.54,1.54,0,0,0,2,2.16l6.73-2.85a9,9,0,0,0,1.81.19h36.09a8.67,8.67,0,0,0,8.67-8.67h0A8.67,8.67,0,0,0,441.41,155.65Z" style="fill:#ffcd6e"/><path d="M410,164.38a3.07,3.07,0,1,1-3.07-3.07A3.06,3.06,0,0,1,410,164.38Z" style="fill:#fff"/><path d="M421.19,164.38a3.07,3.07,0,1,1-3.07-3.07A3.07,3.07,0,0,1,421.19,164.38Z" style="fill:#fff"/><path d="M432.38,164.38a3.07,3.07,0,1,1-3.07-3.07A3.06,3.06,0,0,1,432.38,164.38Z" style="fill:#fff"/><path d="M443.57,164.38a3.07,3.07,0,1,1-3.06-3.07A3.06,3.06,0,0,1,443.57,164.38Z" style="fill:#fff"/><path d="M221.41,224.91,220,226.14a39.94,39.94,0,0,1-16.72,8.41l-2.08.48a22.22,22.22,0,1,0,4.5,13.4c0-.34,0-.68,0-1l2-1.4a40,40,0,0,0,15.11-20.17A.85.85,0,0,0,221.41,224.91Z" style="fill:#ffcd6e"/><path d="M185.06,234.78l3,6.09a1.81,1.81,0,0,0,1.36,1l6.73,1a1.81,1.81,0,0,1,1,3.08l-4.87,4.74a1.84,1.84,0,0,0-.52,1.6l1.15,6.7a1.81,1.81,0,0,1-2.62,1.91l-6-3.17a1.84,1.84,0,0,0-1.68,0l-6,3.17A1.81,1.81,0,0,1,174,259l1.15-6.7a1.84,1.84,0,0,0-.52-1.6l-4.87-4.74a1.81,1.81,0,0,1,1-3.08l6.73-1a1.79,1.79,0,0,0,1.36-1l3-6.09A1.81,1.81,0,0,1,185.06,234.78Z" style="fill:#fff"/><rect x="134.19" y="167.27" width="58.08" height="15" style="fill:#20c997"/><path d="M154.63,169.67l-3.62,10h-2.78l-2.25-6.2-2.32,6.2h-2.78l-3.6-10H140l2.36,6.75,2.44-6.75h2.45l2.38,6.75,2.43-6.75Z" style="fill:#fff"/><path d="M171.76,169.67l-3.61,10h-2.78l-2.25-6.2-2.32,6.2H158l-3.6-10h2.73l2.35,6.75,2.45-6.75h2.45l2.37,6.75,2.43-6.75Z" style="fill:#fff"/><path d="M188.9,169.67l-3.61,10H182.5l-2.24-6.2-2.32,6.2h-2.78l-3.6-10h2.73l2.35,6.75,2.45-6.75h2.45l2.37,6.75,2.43-6.75Z" style="fill:#fff"/><line x1="131.11" y1="167.27" x2="137.26" y2="167.27" style="fill:none;stroke:#20926b;stroke-miterlimit:10"/><line x1="131.11" y1="182.27" x2="137.26" y2="182.27" style="fill:none;stroke:#20926b;stroke-miterlimit:10"/><line x1="134.19" y1="167.27" x2="134.19" y2="182.27" style="fill:none;stroke:#20926b;stroke-miterlimit:10"/><polygon points="295.78 167.87 290.69 166.51 285.61 165.14 286.97 170.23 288.33 175.32 291.12 172.53 296.93 178.35 298.81 176.47 293 170.66 295.78 167.87" style="fill:#20926b"/></g></svg>