<svg id="OBJECTS" xmlns="http://www.w3.org/2000/svg" viewBox="0 0 394.59 319.51"><title>485</title><polygon points="17.47 240.76 15.94 246.46 14.41 252.17 10.24 247.99 6.06 243.81 11.76 242.29 17.47 240.76" style="fill:#20c997"/><polygon points="163.92 45.53 162.39 51.24 160.86 56.94 156.69 52.77 152.51 48.59 158.22 47.06 163.92 45.53" style="fill:#ddfaf1"/><polygon points="26.14 30.08 24.61 35.79 23.08 41.49 18.9 37.32 14.73 33.14 20.43 31.61 26.14 30.08" style="fill:#ddfaf1"/><polygon points="287.28 303.23 285.75 308.93 284.23 314.64 280.05 310.46 275.87 306.29 281.58 304.76 287.28 303.23" style="fill:#ddfaf1"/><polygon points="321.75 0 320.22 5.7 318.69 11.41 314.52 7.23 310.34 3.06 316.04 1.53 321.75 0" style="fill:#20c997"/><polygon points="391.09 229.56 389.57 235.26 388.04 240.97 383.86 236.79 379.69 232.62 385.39 231.09 391.09 229.56" style="fill:#20c997"/><polygon points="137.1 261 135.58 266.7 134.05 272.41 129.87 268.23 125.7 264.06 131.4 262.53 137.1 261" style="fill:#ddfaf1"/><path d="M84,26.91a1.5,1.5,0,0,0,0-3,1.5,1.5,0,0,0,0,3Z" style="fill:#20c997"/><path d="M379.1,45a1.5,1.5,0,0,0,0-3,1.5,1.5,0,0,0,0,3Z" style="fill:#ddfaf1"/><path d="M330.25,307.93a1.5,1.5,0,0,0,0-3,1.5,1.5,0,0,0,0,3Z" style="fill:#ddfaf1"/><path d="M242.62,272.68a1.5,1.5,0,0,0,0-3,1.5,1.5,0,0,0,0,3Z" style="fill:#20c997"/><path d="M87,291.82a1.5,1.5,0,0,0,0-3,1.5,1.5,0,0,0,0,3Z" style="fill:#20c997"/><path d="M215.93,58.64a1.5,1.5,0,0,0,0-3,1.5,1.5,0,0,0,0,3Z" style="fill:#ddfaf1"/><path d="M2.9,164.39c3.86,0,3.87-6,0-6s-3.87,6,0,6Z" style="fill:#ddfaf1"/><path d="M245.64,18.84c3.86,0,3.87-6,0-6s-3.86,6,0,6Z" style="fill:#ddfaf1"/><path d="M391.69,137.19c3.86,0,3.87-6,0-6s-3.86,6,0,6Z" style="fill:#ddfaf1"/><path d="M147.94,313.5h-.5a2.41,2.41,0,0,0-1.16.26,2.7,2.7,0,0,0-1.58,1.59,2.19,2.19,0,0,0-.26,1.15l.1.8a3,3,0,0,0,.78,1.33l.6.47a3,3,0,0,0,1.52.4h.5a2.32,2.32,0,0,0,1.16-.25,2.25,2.25,0,0,0,1-.62,2.34,2.34,0,0,0,.62-1,2.2,2.2,0,0,0,.26-1.16c0-.26-.07-.53-.11-.79a3,3,0,0,0-.77-1.33l-.6-.47a3.12,3.12,0,0,0-1.52-.41Z" style="fill:#ddfaf1"/></svg>